<?xml version="1.0" encoding="utf-8"?>
<!-- Generator: Adobe Illustrator 27.3.1, SVG Export Plug-In . SVG Version: 6.00 Build 0)  -->
<svg version="1.1" id="Layer_1" xmlns="http://www.w3.org/2000/svg" xmlns:xlink="http://www.w3.org/1999/xlink" x="0px" y="0px"
	 viewBox="0 0 512 512" style="enable-background:new 0 0 512 512;" xml:space="preserve">
<style type="text/css">
	.st0{fill:#FAFAFA;}
	.st1{fill:#0F172A;}
</style>
<path class="st0" d="M342,512H170C76.1,512,0,435.9,0,342V170C0,76.1,76.1,0,170,0h172c93.9,0,170,76.1,170,170v172
	C512,435.9,435.9,512,342,512z"/>
<path class="st1" d="M68.5,373.9c-1.4-43.7,33.9-84,80-88.3c23.3-2.2,46.5-5.6,69.7-8.2c4.6-0.5,6.9-2.6,7.9-7.2
	c1.8-7.5,4.1-14.9,6.2-22.4c1.5-5.3,1-6-4.4-5.4c-16.2,1.9-32.3,3.9-48.4,5.8c-21.9,2.6-43.7,5.2-65.7,7.9c-3.7,0.5-4.8-0.4-4.3-4.2
	c1.8-13.7,3.2-27.5,4.8-41.2c0.4-3.1,1.9-4.9,5.2-5.3c33.5-4,67-8,100.5-12c7.8-0.9,15.7-2,23.6-2.8c4-0.4,5.7-2.5,6.7-6.2
	c6.4-23.3,12.7-46.7,19.7-69.8c11.1-36.6,36-58.9,73.7-64c53.2-7.1,92.6,31.2,98.7,74.1c7.2,50.8-27.8,95.7-78.4,101.2
	c-23.3,2.5-46.5,5.6-69.7,8.2c-5.2,0.6-7.8,2.7-8.9,7.8c-1.5,7-3.8,13.8-5.7,20.7c-1.9,6.9-1.7,7.3,5.2,6.4
	c16.2-1.9,32.3-3.9,48.4-5.8c23.9-2.9,47.7-5.8,71.5-8.6c5.6-0.7,5.6-0.4,4.9,5.2c-1.6,13.3-3.3,26.5-4.6,39.8
	c-0.4,3.8-2.1,5.2-5.7,5.6c-42.3,5-84.5,10.3-126.7,15.2c-10.9,1.3-9.6,1.2-12.4,11c-6.2,22-12,44.1-18.7,65.9
	c-11,35.8-35.2,57.6-72.1,63.5c-47.5,7.5-91.3-24.7-100-71.6C68.6,384.3,68.6,379.1,68.5,373.9L68.5,373.9z M394.2,137.9
	c-0.1-1.1-0.3-2.6-0.5-4.1c-2.1-18.7-16.4-32.4-36.2-34.5c-16.1-1.7-33.9,10-39,26.5c-5.3,17.3-10,34.7-14.8,52.2
	c-1.3,4.8-0.6,5.5,4.2,4.9c16.8-2,33.5-3.8,50.2-5.9C379.1,174.4,393.9,158.5,394.2,137.9L394.2,137.9z M156.8,412.6
	c16.6,0,32-11.3,36.8-27.6c5-17.1,9.8-34.2,14.6-51.3c1.3-4.5,0.7-5.3-3.9-4.7c-17.8,2.1-35.6,4.2-53.4,6.4
	c-18.2,2.3-34,18.6-33.1,39.6C118.7,396.3,136.1,412.6,156.8,412.6L156.8,412.6z"/>
</svg>
