<?xml version="1.0" encoding="UTF-8"?>
<svg id="Layer_1" data-name="Layer 1" xmlns="http://www.w3.org/2000/svg" viewBox="0 0 725.11 800">
  <defs>
    <style>
      .cls-1 {
        fill: #fafafa;
      }

      .cls-2 {
        fill: #0f172a;
      }
    </style>
  </defs>
  <rect class="cls-1" width="725.11" height="800" rx="193.36" ry="193.36"/>
  <path class="cls-2" d="m97.44,566.8c-2.04-61.8,47.95-118.86,113.18-124.91,32.94-3.06,65.74-7.87,98.6-11.66,6.56-.73,9.77-3.72,11.22-10.13,2.55-10.64,5.83-21.13,8.75-31.7,2.11-7.51,1.46-8.45-6.27-7.58-22.88,2.62-45.69,5.47-68.51,8.24-30.97,3.72-61.87,7.29-92.85,11.22-5.25.66-6.78-.51-6.05-5.98,2.48-19.39,4.59-38.84,6.85-58.3.51-4.37,2.7-6.92,7.36-7.43,47.37-5.61,94.74-11.3,142.11-16.91,11.08-1.31,22.15-2.84,33.31-3.94,5.68-.58,8.02-3.57,9.47-8.75,9.11-32.94,18-66.03,27.91-98.75,15.74-51.74,50.87-83.3,104.29-90.44,75.21-10.06,130.89,44.16,139.56,104.8,10.2,71.78-39.35,135.33-110.92,143.13-32.94,3.57-65.74,7.94-98.6,11.66-7.29.8-11,3.86-12.61,11.08-2.11,9.84-5.32,19.53-8.02,29.22-2.7,9.69-2.4,10.28,7.29,9.11,22.88-2.62,45.69-5.47,68.51-8.24,33.74-4.08,67.41-8.24,101.15-12.17,7.87-.95,7.94-.58,7,7.29-2.26,18.8-4.66,37.53-6.56,56.33-.58,5.39-2.92,7.29-8.02,7.87-59.76,7.07-119.45,14.58-179.21,21.5-15.38,1.82-13.63,1.68-17.56,15.6-8.82,31.05-16.98,62.31-26.45,93.14-15.6,50.58-49.85,81.48-102.03,89.79-67.19,10.64-129.14-34.98-141.38-101.3-1.38-7.21-1.46-14.5-1.53-21.79Zm460.59-333.85c-.15-1.53-.44-3.64-.66-5.76-2.99-26.45-23.25-45.77-51.16-48.76-22.74-2.4-47.88,14.21-55.1,37.46-7.51,24.41-14.14,49.12-20.99,73.75-1.89,6.78-.87,7.73,5.9,6.92,23.69-2.77,47.37-5.39,70.98-8.31,29.66-3.64,50.58-26.16,51.01-55.31Zm-335.75,388.51c23.54,0,45.26-16.03,52.11-39.06,7.14-24.12,13.85-48.39,20.62-72.59,1.82-6.41,1.02-7.43-5.54-6.63-25.14,2.92-50.36,5.9-75.5,9.11-25.8,3.28-48.1,26.31-46.86,56.04,1.24,30.1,25.87,53.13,55.17,53.13Z"/>
</svg>