<?xml version="1.0" encoding="UTF-8"?>
<svg id="Layer_1" data-name="Layer 1" xmlns="http://www.w3.org/2000/svg" viewBox="0 0 1883.46 800">
  <defs>
    <style>
      .cls-1 {
        fill: #fafafa;
      }
    </style>
  </defs>
  <path class="cls-1" d="m.08,628.94c-2.8-84.82,65.82-163.15,155.34-171.45,45.21-4.2,90.23-10.8,135.34-16,9-1,13.4-5.1,15.4-13.9,3.5-14.6,8-29.01,12-43.51,2.9-10.3,2-11.6-8.6-10.4-31.41,3.6-62.72,7.5-94.03,11.3-42.51,5.1-84.92,10-127.44,15.4-7.2.9-9.3-.7-8.3-8.2,3.4-26.61,6.3-53.32,9.4-80.02.7-6,3.7-9.5,10.1-10.2,65.02-7.7,130.04-15.5,195.06-23.21,15.2-1.8,30.41-3.9,45.71-5.4,7.8-.8,11-4.9,13-12,12.5-45.21,24.71-90.63,38.31-135.54C413,54.78,461.21,11.46,534.53,1.66c103.23-13.8,179.65,60.62,191.55,143.84,14,98.53-54.02,185.75-152.24,196.46-45.21,4.9-90.23,10.9-135.34,16-10,1.1-15.1,5.3-17.3,15.2-2.9,13.5-7.3,26.81-11,40.11-3.7,13.3-3.3,14.1,10,12.5,31.41-3.6,62.72-7.5,94.03-11.3,46.31-5.6,92.53-11.3,138.84-16.7,10.8-1.3,10.9-.8,9.6,10-3.1,25.81-6.4,51.51-9,77.32-.8,7.4-4,10-11,10.8-82.02,9.7-163.95,20.01-245.97,29.51-21.11,2.5-18.71,2.3-24.11,21.41-12.1,42.61-23.31,85.52-36.31,127.84-21.41,69.42-68.42,111.83-140.04,123.23-92.23,14.6-177.25-48.01-194.05-139.04-1.9-9.9-2-19.91-2.1-29.91ZM632.26,170.71c-.2-2.1-.6-5-.9-7.9-4.1-36.31-31.91-62.82-70.22-66.92-31.21-3.3-65.72,19.51-75.62,51.41-10.3,33.51-19.41,67.42-28.81,101.23-2.6,9.3-1.2,10.6,8.1,9.5,32.51-3.8,65.02-7.4,97.43-11.4,40.71-5,69.42-35.91,70.02-75.92ZM171.43,703.96c32.31,0,62.12-22.01,71.52-53.62,9.8-33.11,19.01-66.42,28.31-99.63,2.5-8.8,1.4-10.2-7.6-9.1-34.51,4-69.12,8.1-103.63,12.5-35.41,4.5-66.02,36.11-64.32,76.92,1.7,41.31,35.51,72.92,75.72,72.92Z"/>
  <g>
    <path class="cls-1" d="m872.42,588.4V211.6h257.95v68.28h-179.55v95.59h154.26v68.28h-154.26v144.65h-78.4Z"/>
    <path class="cls-1" d="m1163.75,588.4V205.53h75.87v382.88h-75.87Z"/>
    <path class="cls-1" d="m1380.72,594.47c-19.9,0-37.1-3.21-51.59-9.61-14.5-6.4-25.63-15.59-33.38-27.57-7.76-11.96-11.63-26.21-11.63-42.74,0-15.51,3.54-29.25,10.62-41.22,7.08-11.96,17.96-22,32.62-30.09,14.67-8.09,32.95-13.82,54.88-17.2l84.47-13.66v55.64l-70.81,12.64c-10.8,2.02-19.05,5.48-24.78,10.37-5.74,4.89-8.6,11.89-8.6,20.99,0,8.43,3.2,15.01,9.61,19.73,6.4,4.73,14.33,7.08,23.77,7.08,12.47,0,23.43-2.69,32.88-8.09,9.44-5.39,16.77-12.72,22-22,5.22-9.27,7.84-19.47,7.84-30.6v-71.82c0-10.45-4.13-19.22-12.39-26.3-8.27-7.08-19.47-10.62-33.63-10.62s-25.38,3.71-35.66,11.13c-10.29,7.42-17.79,17.2-22.51,29.34l-60.69-28.83c5.39-15.51,13.99-28.83,25.79-39.96,11.8-11.13,25.96-19.73,42.49-25.79,16.52-6.07,34.56-9.1,54.12-9.1,23.27,0,43.83,4.22,61.71,12.64,17.87,8.43,31.78,20.15,41.73,35.15,9.94,15.01,14.92,32.46,14.92,52.35v182.08h-70.81v-44.51l17.2-3.03c-8.09,12.14-17.03,22.18-26.81,30.09-9.78,7.93-20.74,13.83-32.88,17.7-12.14,3.87-25.63,5.82-40.46,5.82Z"/>
    <path class="cls-1" d="m1590.11,287.46v-75.87h75.87v75.87h-75.87Zm0,300.94v-276.16h75.87v276.16h-75.87Z"/>
    <path class="cls-1" d="m1721.61,588.4v-276.16h70.81v66.26l-5.06-9.61c6.07-23.27,16.1-39.02,30.09-47.29,13.99-8.26,30.6-12.39,49.82-12.39h16.18v65.75h-23.77c-18.55,0-33.56,5.65-45.01,16.94-11.47,11.3-17.2,27.23-17.2,47.8v148.7h-75.87Z"/>
  </g>
</svg>