<?xml version="1.0" encoding="utf-8"?>
<!-- Generator: Adobe Illustrator 27.3.1, SVG Export Plug-In . SVG Version: 6.00 Build 0)  -->
<svg version="1.1" id="Layer_1" xmlns="http://www.w3.org/2000/svg" xmlns:xlink="http://www.w3.org/1999/xlink" x="0px" y="0px"
	 viewBox="0 0 800 800" style="enable-background:new 0 0 800 800;" xml:space="preserve">
<path d="M27.1,629c-2.8-84.8,65.8-163.1,155.3-171.4c45.2-4.2,90.2-10.8,135.3-16c9-1,13.4-5.1,15.4-13.9c3.5-14.6,8-29,12-43.5
	c2.9-10.3,2-11.6-8.6-10.4c-31.4,3.6-62.7,7.5-94,11.3c-42.5,5.1-84.9,10-127.4,15.4c-7.2,0.9-9.3-0.7-8.3-8.2
	c3.4-26.6,6.3-53.3,9.4-80c0.7-6,3.7-9.5,10.1-10.2c65-7.7,130-15.5,195-23.2c15.2-1.8,30.4-3.9,45.7-5.4c7.8-0.8,11-4.9,13-12
	c12.5-45.2,24.7-90.6,38.3-135.5C439.9,55,488.1,11.7,561.4,1.9C664.6-11.9,741,62.5,752.9,145.7c14,98.5-54,185.7-152.2,196.4
	c-45.2,4.9-90.2,10.9-135.3,16c-10,1.1-15.1,5.3-17.3,15.2c-2.9,13.5-7.3,26.8-11,40.1c-3.7,13.3-3.3,14.1,10,12.5
	c31.4-3.6,62.7-7.5,94-11.3c46.3-5.6,92.5-11.3,138.8-16.7c10.8-1.3,10.9-0.8,9.6,10c-3.1,25.8-6.4,51.5-9,77.3
	c-0.8,7.4-4,10-11,10.8c-82,9.7-163.9,20-245.9,29.5c-21.1,2.5-18.7,2.3-24.1,21.4c-12.1,42.6-23.3,85.5-36.3,127.8
	c-21.4,69.4-68.4,111.8-140,123.2C131,812.5,46,749.9,29.2,658.9C27.3,649,27.2,639,27.1,629z M659.1,170.9c-0.2-2.1-0.6-5-0.9-7.9
	c-4.1-36.3-31.9-62.8-70.2-66.9c-31.2-3.3-65.7,19.5-75.6,51.4c-10.3,33.5-19.4,67.4-28.8,101.2c-2.6,9.3-1.2,10.6,8.1,9.5
	c32.5-3.8,65-7.4,97.4-11.4C629.8,241.8,658.5,210.9,659.1,170.9z M198.4,704c32.3,0,62.1-22,71.5-53.6c9.8-33.1,19-66.4,28.3-99.6
	c2.5-8.8,1.4-10.2-7.6-9.1c-34.5,4-69.1,8.1-103.6,12.5c-35.4,4.5-66,36.1-64.3,76.9C124.4,672.4,158.2,704,198.4,704z"/>
</svg>
