<?xml version="1.0" encoding="UTF-8"?>
<svg id="Layer_1" data-name="Layer 1" xmlns="http://www.w3.org/2000/svg" viewBox="0 0 727.91 800">
  <defs>
    <style>
      .cls-1 {
        fill: #0f172a;
      }
    </style>
  </defs>
  <path class="cls-1" d="m.08,628.94c-2.8-84.82,65.82-163.15,155.34-171.45,45.21-4.2,90.23-10.8,135.34-16,9-1,13.4-5.1,15.4-13.9,3.5-14.6,8-29.01,12-43.51,2.9-10.3,2-11.6-8.6-10.4-31.41,3.6-62.72,7.5-94.03,11.3-42.51,5.1-84.92,10-127.44,15.4-7.2.9-9.3-.7-8.3-8.2,3.4-26.61,6.3-53.32,9.4-80.02.7-6,3.7-9.5,10.1-10.2,65.02-7.7,130.04-15.5,195.06-23.21,15.2-1.8,30.41-3.9,45.71-5.4,7.8-.8,11-4.9,13-12,12.5-45.21,24.71-90.63,38.31-135.54C413,54.78,461.21,11.46,534.53,1.66c103.23-13.8,179.65,60.62,191.55,143.84,14,98.53-54.02,185.75-152.24,196.46-45.21,4.9-90.23,10.9-135.34,16-10,1.1-15.1,5.3-17.3,15.2-2.9,13.5-7.3,26.81-11,40.11-3.7,13.3-3.3,14.1,10,12.5,31.41-3.6,62.72-7.5,94.03-11.3,46.31-5.6,92.53-11.3,138.84-16.7,10.8-1.3,10.9-.8,9.6,10-3.1,25.81-6.4,51.51-9,77.32-.8,7.4-4,10-11,10.8-82.02,9.7-163.95,20.01-245.97,29.51-21.11,2.5-18.71,2.3-24.11,21.41-12.1,42.61-23.31,85.52-36.31,127.84-21.41,69.42-68.42,111.83-140.04,123.23-92.23,14.6-177.25-48.01-194.05-139.04-1.9-9.9-2-19.91-2.1-29.91ZM632.26,170.71c-.2-2.1-.6-5-.9-7.9-4.1-36.31-31.91-62.82-70.22-66.92-31.21-3.3-65.72,19.51-75.62,51.41-10.3,33.51-19.41,67.42-28.81,101.23-2.6,9.3-1.2,10.6,8.1,9.5,32.51-3.8,65.02-7.4,97.43-11.4,40.71-5,69.42-35.91,70.02-75.92ZM171.43,703.96c32.31,0,62.12-22.01,71.52-53.62,9.8-33.11,19.01-66.42,28.31-99.63,2.5-8.8,1.4-10.2-7.6-9.1-34.51,4-69.12,8.1-103.63,12.5-35.41,4.5-66.02,36.11-64.32,76.92,1.7,41.31,35.51,72.92,75.72,72.92Z"/>
</svg>